# xmcd
#
# Track frame offsets: 
#        150
#        21037
#        40737
#        62337
#
# Disc length: 1089 seconds
#
# Revision: 3
# Processed by: cddbd v1.5.2PL0 Copyright (c) Steve Scherf et al.
# Submitted via: ExactAudioCopyFreeDBPlugin 1.0
#
DISCID=24043f04
DTITLE=陳奕迅 - 我的快樂時代現場
DYEAR=1998
DGENRE=Blues
TTITLE0=Mr. Cab Driver
TTITLE1=時代
TTITLE2=尋開心
TTITLE3=不再讓你孤單
EXTD=YEAR: 1996
EXTT0=
EXTT1=
EXTT2=
EXTT3=
PLAYORDER=
